<svg xmlns="http://www.w3.org/2000/svg" xmlns:xlink="http://www.w3.org/1999/xlink" width="1080" zoomAndPan="magnify" viewBox="0 0 810 809.999993" height="1080" preserveAspectRatio="xMidYMid meet" version="1.2"><defs><clipPath id="6e02607f34"><path d="M 123 355 L 221 355 L 221 569.410156 L 123 569.410156 Z M 123 355 "/></clipPath><clipPath id="33c24c0bd6"><path d="M 159 240.910156 L 178 240.910156 L 178 296 L 159 296 Z M 159 240.910156 "/></clipPath><clipPath id="50a6851d4a"><path d="M 249 382 L 296.574219 382 L 296.574219 400 L 249 400 Z M 249 382 "/></clipPath><clipPath id="7b7fd11f3e"><path d="M 41.574219 382 L 88 382 L 88 400 L 41.574219 400 Z M 41.574219 382 "/></clipPath></defs><g id="3333cc56b5"><path style=" stroke:none;fill-rule:nonzero;fill:#f5b11b;fill-opacity:1;" d="M 220.933594 433.46875 C 222.554688 428.253906 223.816406 422.871094 224.59375 417.449219 C 229.054688 386.40625 212.488281 324.160156 177.589844 315.898438 C 131.269531 304.933594 121.558594 374.207031 97.523438 399.113281 C 96.875 399.785156 96.425781 400.570312 95.332031 400.347656 C 95.027344 396.863281 93.839844 393.507812 93.464844 390.027344 C 86.183594 322.859375 157.332031 277.738281 213.007812 317.347656 C 248.988281 342.941406 255.054688 398.707031 224.378906 430.984375 C 223.871094 431.519531 221.597656 434.132812 220.933594 433.46875 Z M 220.933594 433.46875 "/><g clip-rule="nonzero" clip-path="url(#6e02607f34)"><path style=" stroke:none;fill-rule:nonzero;fill:#552d8b;fill-opacity:1;" d="M 201.210938 355.660156 C 223.105469 377.960938 225.085938 411.59375 211.863281 439.09375 C 199.800781 464.1875 182.140625 473.300781 164.371094 492.214844 C 142.878906 515.085938 138.449219 547.820312 164.0625 569.40625 C 161.507812 569.25 157.417969 567.4375 154.890625 566.085938 C 129.683594 552.601562 117.863281 520.664062 125.144531 493.609375 C 136.15625 452.667969 181.296875 447.882812 194.988281 413.46875 C 198.695312 404.152344 200.328125 392.773438 199.066406 382.855469 C 200.191406 383.046875 200.136719 384.121094 200.402344 384.953125 C 204.785156 398.609375 202.875 416.695312 196.675781 429.535156 C 185.652344 452.386719 161.320312 463.957031 147.796875 485.023438 C 140.652344 496.152344 136.464844 509.570312 136.574219 522.847656 L 138.265625 514.863281 C 155.070312 465.253906 220.023438 453.214844 212.730469 392.625 C 211.382812 381.449219 206.828125 367.960938 202.144531 357.722656 C 201.878906 357.144531 200.695312 356.957031 200.558594 356.066406 L 201.210938 355.667969 Z M 201.210938 355.660156 "/></g><path style=" stroke:none;fill-rule:nonzero;fill:#552d8b;fill-opacity:1;" d="M 133.445312 414.417969 C 130.351562 441.914062 96.757812 450.707031 90.640625 476.601562 C 86.738281 493.105469 91.113281 514.882812 103.113281 527.265625 L 106.578125 529.714844 C 93.019531 510.964844 101.703125 488.308594 115.003906 472.214844 C 116.167969 470.804688 118.148438 468.515625 119.476562 467.328125 C 120.109375 466.761719 120.238281 465.632812 121.574219 465.980469 C 106.851562 484.207031 103.257812 510.882812 113.96875 532.015625 L 119.074219 539.71875 C 104.273438 536.246094 89.472656 525.492188 81.703125 512.414062 C 71.585938 495.382812 71.292969 474.027344 84.386719 458.46875 C 93.449219 447.707031 107.058594 442.054688 116.59375 431.933594 C 125.398438 422.589844 131.507812 410.183594 132.207031 397.234375 C 132.609375 397.1875 133.449219 398.066406 133.449219 398.167969 C 133.449219 403.15625 133.984375 409.671875 133.449219 414.417969 Z M 133.445312 414.417969 "/><path style=" stroke:none;fill-rule:nonzero;fill:#c9d0e0;fill-opacity:1;" d="M 184.0625 352.226562 C 180.207031 352.121094 177.390625 351.90625 173.84375 353.597656 C 173.199219 353.90625 171.703125 353.964844 172.195312 355.03125 C 173.121094 357.03125 177.410156 354.867188 179.347656 354.703125 C 185.171875 354.207031 188.28125 355.167969 191.882812 359.71875 C 195.601562 364.421875 194.390625 369.132812 193.253906 374.851562 C 188.78125 397.300781 167.148438 412.058594 149.988281 390.367188 C 146.386719 385.808594 140.328125 369.230469 142.523438 364.109375 C 142.785156 363.503906 151.371094 355.042969 152.007812 354.855469 C 156.140625 353.636719 160.03125 356.261719 164.070312 355.972656 L 163.644531 354.09375 C 161.402344 353.476562 159.078125 352.917969 156.859375 352.238281 C 156.171875 352.027344 155.742188 352.675781 155.949219 351.300781 C 160.269531 347.195312 164.132812 341.570312 166.246094 335.96875 C 167.289062 333.199219 167.527344 330.410156 168.757812 327.859375 C 170.367188 337.695312 176.785156 345.820312 184.0625 352.222656 Z M 162.066406 363.25 C 156.136719 364.777344 154.214844 364.464844 148.449219 362.234375 C 150.476562 369.789062 159.496094 369.316406 163.429688 363.171875 C 161.761719 361.113281 162.3125 363.191406 162.066406 363.253906 Z M 173.445312 362.859375 C 173.910156 365.59375 178.199219 367.742188 180.652344 367.882812 C 183.886719 368.066406 188.871094 366.03125 187.183594 362.230469 C 182.382812 365.179688 178.507812 363.886719 173.445312 362.859375 Z M 172.816406 379.726562 C 171.601562 376.957031 166.398438 377.054688 164.695312 379.421875 C 167.75 381.734375 169.597656 380.84375 172.816406 379.726562 Z M 177.816406 386.613281 C 175.035156 386.769531 172.578125 382.960938 170.175781 383.597656 C 166.363281 384.613281 168.464844 383.625 166.261719 383.496094 C 165.585938 383.457031 159.480469 386.675781 159.695312 387.539062 C 159.777344 387.863281 164.285156 391.242188 164.992188 391.625 C 170.585938 394.640625 173.964844 390.191406 177.816406 386.617188 Z M 177.816406 386.613281 "/><path style=" stroke:none;fill-rule:nonzero;fill:#c9d0e0;fill-opacity:1;" d="M 184.058594 399.730469 C 183.835938 402.335938 182.957031 404.902344 182.789062 407.519531 C 182.59375 410.675781 183.789062 416.070312 183.453125 418.132812 C 183.027344 420.765625 175.148438 427.546875 172.761719 429.359375 C 161.9375 437.601562 148.773438 442.21875 137.507812 449.714844 C 136.765625 449.753906 136.660156 448.980469 137.191406 448.164062 C 138.101562 446.777344 140.355469 445.230469 141.554688 443.773438 C 152.671875 430.230469 156.800781 417.402344 152.824219 399.726562 C 159.882812 409.175781 170.015625 413.191406 179.703125 404.429688 C 181.316406 402.96875 182.078125 400.796875 184.058594 399.726562 Z M 184.058594 399.730469 "/><path style=" stroke:none;fill-rule:nonzero;fill:#552d8b;fill-opacity:1;" d="M 129.695312 375.359375 C 125.988281 387.617188 123.382812 400.683594 116.09375 411.433594 C 106.523438 425.546875 85.796875 436.75 71.292969 446 C 70.523438 446.488281 70.058594 446.789062 69.082031 446.597656 C 73.316406 422.277344 100.671875 415.3125 114.714844 398.804688 C 120.425781 392.09375 123.363281 383.871094 128.148438 376.597656 C 128.628906 375.867188 127.996094 374.984375 129.695312 375.359375 Z M 129.695312 375.359375 "/><g clip-rule="nonzero" clip-path="url(#33c24c0bd6)"><path style=" stroke:none;fill-rule:nonzero;fill:#f3b01c;fill-opacity:1;" d="M 169.058594 240.988281 C 170.730469 249.523438 174.613281 257.414062 176.277344 265.964844 C 177.820312 273.933594 178.84375 282.933594 175.03125 290.386719 C 171.25 297.777344 165.003906 297.605469 161.453125 290.171875 C 156.816406 280.464844 159.777344 267.78125 162.511719 257.867188 C 163.703125 253.554688 165.949219 245.648438 167.675781 241.78125 C 168.054688 240.929688 167.746094 240.804688 169.066406 240.992188 Z M 169.058594 240.988281 "/></g><path style=" stroke:none;fill-rule:nonzero;fill:#f4b01c;fill-opacity:1;" d="M 286.550781 322.863281 C 277.976562 331.28125 262.277344 348.574219 249.390625 347.867188 C 237.96875 347.238281 241.105469 337.136719 247.859375 331.972656 C 258.25 324.03125 274.144531 324.476562 286.550781 322.863281 Z M 286.550781 322.863281 "/><path style=" stroke:none;fill-rule:nonzero;fill:#f4b11c;fill-opacity:1;" d="M 50.960938 322.859375 C 63.75 324.71875 83.070312 324.195312 92.109375 335.140625 C 100.28125 345.035156 90.261719 349.746094 80.609375 346.640625 C 73.757812 344.433594 56.300781 330.488281 51.890625 324.738281 C 51.410156 324.109375 50.675781 323.945312 50.960938 322.859375 Z M 50.960938 322.859375 "/><path style=" stroke:none;fill-rule:nonzero;fill:#f4b11c;fill-opacity:1;" d="M 239.679688 266.613281 C 236.851562 278.671875 232.058594 303.230469 218.605469 307.714844 C 211.246094 310.167969 208.789062 305.734375 209.746094 298.847656 C 211.039062 289.5 230.257812 273.417969 237.800781 267.542969 C 238.429688 267.050781 238.605469 266.335938 239.679688 266.613281 Z M 239.679688 266.613281 "/><path style=" stroke:none;fill-rule:nonzero;fill:#f4b11c;fill-opacity:1;" d="M 98.457031 266.613281 C 107.300781 274.066406 127.546875 288.9375 127.757812 301.363281 C 127.875 308.261719 122.644531 309.917969 117.003906 307.121094 C 105.15625 301.25 100.070312 278.5625 98.457031 266.613281 Z M 98.457031 266.613281 "/><g clip-rule="nonzero" clip-path="url(#50a6851d4a)"><path style=" stroke:none;fill-rule:nonzero;fill:#f3b01c;fill-opacity:1;" d="M 296.546875 394.113281 C 296.695312 395.007812 295.464844 394.960938 294.808594 395.167969 C 284.242188 398.5625 268.046875 401.59375 257.472656 397.875 C 246.230469 393.921875 247.210938 384.082031 259.375 382.859375 C 273.464844 381.445312 284.21875 389.449219 296.550781 394.109375 Z M 296.546875 394.113281 "/></g><path style=" stroke:none;fill-rule:nonzero;fill:#f4b01c;fill-opacity:1;" d="M 269.050781 461.59375 C 257.664062 458.125 241.035156 452.832031 234.425781 442.175781 C 231.628906 437.667969 230.152344 430.789062 237.023438 429.875 C 251.28125 427.976562 262.648438 451.636719 269.050781 461.59375 Z M 269.050781 461.59375 "/><g clip-rule="nonzero" clip-path="url(#7b7fd11f3e)"><path style=" stroke:none;fill-rule:nonzero;fill:#f2b01c;fill-opacity:1;" d="M 41.585938 394.113281 C 52.910156 389.296875 63.949219 381.742188 76.882812 382.863281 C 90.207031 384.023438 90.851562 394.578125 78.589844 398.304688 C 69.652344 401.023438 51.996094 398.578125 43.175781 395.328125 C 42.511719 395.082031 41.675781 395.042969 41.585938 394.113281 Z M 41.585938 394.113281 "/></g><path style=" stroke:none;fill-rule:nonzero;fill:#522d87;fill-opacity:1;" d="M 151.566406 344.734375 L 118.457031 375.355469 L 124.714844 366.308594 C 131.113281 359.546875 138.105469 353.3125 145.75 347.96875 C 147.460938 346.769531 149.519531 344.804688 151.570312 344.734375 Z M 151.566406 344.734375 "/><path style=" stroke:none;fill-rule:nonzero;fill:#512c85;fill-opacity:1;" d="M 66.582031 463.160156 C 67.222656 459.285156 73.773438 453.515625 77.816406 453.15625 L 70.21875 461.800781 L 66.582031 472.226562 C 66.90625 469.4375 66.144531 465.824219 66.582031 463.164062 Z M 66.582031 463.160156 "/><path style=" stroke:none;fill-rule:nonzero;fill:#512c85;fill-opacity:1;" d="M 78.765625 452.226562 C 79.171875 452.433594 79.171875 452.644531 78.765625 452.851562 Z M 78.765625 452.226562 "/><g style="fill:#c8d0e0;fill-opacity:1;"><g transform="translate(301.535732, 447.323539)"><path style="stroke:none" d="M 35.078125 -73.890625 L 60.40625 -8.71875 C 61.375 -6.15625 62.492188 -4.421875 63.765625 -3.515625 C 65.046875 -2.617188 66.242188 -2.140625 67.359375 -2.078125 L 67.359375 0 C 65.691406 -0.132812 63.734375 -0.21875 61.484375 -0.25 C 59.242188 -0.289062 56.976562 -0.3125 54.6875 -0.3125 C 51.78125 -0.3125 49.082031 -0.289062 46.59375 -0.25 C 44.101562 -0.21875 42.097656 -0.132812 40.578125 0 L 40.578125 -2.078125 C 44.109375 -2.210938 46.335938 -2.816406 47.265625 -3.890625 C 48.203125 -4.960938 47.976562 -7.265625 46.59375 -10.796875 L 27.921875 -61.234375 L 29.578125 -63.09375 L 12.34375 -18.0625 C 11.101562 -14.945312 10.359375 -12.347656 10.109375 -10.265625 C 9.867188 -8.191406 10.039062 -6.566406 10.625 -5.390625 C 11.21875 -4.210938 12.238281 -3.378906 13.6875 -2.890625 C 15.144531 -2.410156 16.945312 -2.140625 19.09375 -2.078125 L 19.09375 0 C 17.019531 -0.132812 14.925781 -0.21875 12.8125 -0.25 C 10.707031 -0.289062 8.71875 -0.3125 6.84375 -0.3125 C 5.1875 -0.3125 3.71875 -0.289062 2.4375 -0.25 C 1.15625 -0.21875 0 -0.132812 -1.03125 0 L -1.03125 -2.078125 C 0.414062 -2.421875 1.863281 -3.285156 3.3125 -4.671875 C 4.769531 -6.054688 6.15625 -8.410156 7.46875 -11.734375 L 31.546875 -73.890625 C 32.097656 -73.890625 32.6875 -73.890625 33.3125 -73.890625 C 33.9375 -73.890625 34.523438 -73.890625 35.078125 -73.890625 Z M 45.96875 -29.890625 L 45.96875 -27.8125 L 15.046875 -27.8125 L 16.09375 -29.890625 Z M 45.96875 -29.890625 "/></g></g><g style="fill:#c8d0e0;fill-opacity:1;"><g transform="translate(375.422157, 447.323539)"><path style="stroke:none" d="M 51.46875 -54.6875 L 51.46875 -11.203125 C 51.46875 -8.085938 52.003906 -5.785156 53.078125 -4.296875 C 54.148438 -2.816406 56.109375 -2.078125 58.953125 -2.078125 L 58.953125 0.109375 C 56.804688 -0.0976562 54.660156 -0.203125 52.515625 -0.203125 C 50.234375 -0.203125 48.050781 -0.0976562 45.96875 0.109375 C 43.894531 0.316406 41.992188 0.695312 40.265625 1.25 L 40.265625 -10.0625 C 38.535156 -5.914062 36.128906 -2.957031 33.046875 -1.1875 C 29.972656 0.570312 26.738281 1.453125 23.34375 1.453125 C 20.789062 1.453125 18.613281 1.085938 16.8125 0.359375 C 15.007812 -0.359375 13.519531 -1.304688 12.34375 -2.484375 C 11.101562 -3.867188 10.238281 -5.648438 9.75 -7.828125 C 9.269531 -10.015625 9.03125 -12.769531 9.03125 -16.09375 L 9.03125 -42.234375 C 9.03125 -45.347656 8.507812 -47.648438 7.46875 -49.140625 C 6.4375 -50.628906 4.46875 -51.375 1.5625 -51.375 L 1.5625 -53.546875 C 3.769531 -53.335938 5.910156 -53.234375 7.984375 -53.234375 C 10.273438 -53.234375 12.457031 -53.351562 14.53125 -53.59375 C 16.601562 -53.84375 18.503906 -54.207031 20.234375 -54.6875 L 20.234375 -13.1875 C 20.234375 -11.175781 20.367188 -9.335938 20.640625 -7.671875 C 20.921875 -6.015625 21.582031 -4.703125 22.625 -3.734375 C 23.664062 -2.765625 25.328125 -2.28125 27.609375 -2.28125 C 30.023438 -2.28125 32.1875 -3.003906 34.09375 -4.453125 C 36 -5.910156 37.503906 -7.882812 38.609375 -10.375 C 39.710938 -12.863281 40.265625 -15.664062 40.265625 -18.78125 L 40.265625 -42.234375 C 40.265625 -45.347656 39.742188 -47.648438 38.703125 -49.140625 C 37.671875 -50.628906 35.703125 -51.375 32.796875 -51.375 L 32.796875 -53.546875 C 35.003906 -53.335938 37.148438 -53.234375 39.234375 -53.234375 C 41.515625 -53.234375 43.691406 -53.351562 45.765625 -53.59375 C 47.835938 -53.84375 49.738281 -54.207031 51.46875 -54.6875 Z M 51.46875 -54.6875 "/></g></g><g style="fill:#c8d0e0;fill-opacity:1;"><g transform="translate(446.921936, 447.323539)"><path style="stroke:none" d="M 36.21875 -55 C 38.226562 -55 39.941406 -54.582031 41.359375 -53.75 C 42.773438 -52.925781 43.84375 -51.875 44.5625 -50.59375 C 45.289062 -49.3125 45.65625 -47.875 45.65625 -46.28125 C 45.65625 -44.28125 45.050781 -42.566406 43.84375 -41.140625 C 42.632812 -39.722656 41.023438 -39.015625 39.015625 -39.015625 C 37.285156 -39.015625 35.816406 -39.535156 34.609375 -40.578125 C 33.398438 -41.617188 32.796875 -43.035156 32.796875 -44.828125 C 32.796875 -46.347656 33.191406 -47.644531 33.984375 -48.71875 C 34.785156 -49.789062 35.703125 -50.640625 36.734375 -51.265625 C 36.046875 -51.816406 35.21875 -52.0625 34.25 -52 C 32.382812 -51.925781 30.65625 -51.316406 29.0625 -50.171875 C 27.46875 -49.035156 26.113281 -47.582031 25 -45.8125 C 23.894531 -44.050781 23.03125 -42.164062 22.40625 -40.15625 C 21.789062 -38.15625 21.484375 -36.289062 21.484375 -34.5625 L 21.484375 -10.6875 C 21.484375 -7.300781 22.414062 -5.035156 24.28125 -3.890625 C 26.15625 -2.742188 28.75 -2.171875 32.0625 -2.171875 L 32.0625 0 C 30.476562 -0.0703125 28.210938 -0.160156 25.265625 -0.265625 C 22.328125 -0.367188 19.234375 -0.421875 15.984375 -0.421875 C 13.492188 -0.421875 11.003906 -0.367188 8.515625 -0.265625 C 6.023438 -0.160156 4.117188 -0.0703125 2.796875 0 L 2.796875 -2.171875 C 5.492188 -2.171875 7.414062 -2.691406 8.5625 -3.734375 C 9.707031 -4.773438 10.28125 -6.75 10.28125 -9.65625 L 10.28125 -42.234375 C 10.28125 -45.347656 9.757812 -47.648438 8.71875 -49.140625 C 7.675781 -50.628906 5.703125 -51.375 2.796875 -51.375 L 2.796875 -53.546875 C 5.015625 -53.335938 7.160156 -53.234375 9.234375 -53.234375 C 11.585938 -53.234375 13.785156 -53.351562 15.828125 -53.59375 C 17.867188 -53.84375 19.753906 -54.207031 21.484375 -54.6875 L 21.484375 -42.765625 C 22.316406 -44.765625 23.421875 -46.695312 24.796875 -48.5625 C 26.179688 -50.4375 27.84375 -51.976562 29.78125 -53.1875 C 31.71875 -54.394531 33.863281 -55 36.21875 -55 Z M 36.21875 -55 "/></g></g><g style="fill:#c8d0e0;fill-opacity:1;"><g transform="translate(502.337022, 447.323539)"><path style="stroke:none" d="M 28.546875 -55 C 34.628906 -55 39.398438 -53.164062 42.859375 -49.5 C 46.316406 -45.832031 48.046875 -40.019531 48.046875 -32.0625 L 12.25 -32.0625 L 12.03125 -34.046875 L 37.046875 -34.046875 C 37.117188 -37.429688 36.84375 -40.554688 36.21875 -43.421875 C 35.59375 -46.296875 34.625 -48.597656 33.3125 -50.328125 C 32 -52.054688 30.269531 -52.921875 28.125 -52.921875 C 25.144531 -52.921875 22.566406 -51.347656 20.390625 -48.203125 C 18.210938 -45.054688 16.878906 -40.023438 16.390625 -33.109375 L 16.703125 -32.59375 C 16.640625 -31.625 16.570312 -30.566406 16.5 -29.421875 C 16.425781 -28.273438 16.390625 -27.148438 16.390625 -26.046875 C 16.390625 -21.273438 17.113281 -17.257812 18.5625 -14 C 20.019531 -10.75 21.925781 -8.3125 24.28125 -6.6875 C 26.632812 -5.0625 29.023438 -4.25 31.453125 -4.25 C 33.316406 -4.25 35.128906 -4.539062 36.890625 -5.125 C 38.660156 -5.71875 40.335938 -6.722656 41.921875 -8.140625 C 43.515625 -9.566406 44.9375 -11.523438 46.1875 -14.015625 L 48.265625 -13.1875 C 47.429688 -10.832031 46.148438 -8.507812 44.421875 -6.21875 C 42.691406 -3.9375 40.476562 -2.085938 37.78125 -0.671875 C 35.082031 0.742188 31.929688 1.453125 28.328125 1.453125 C 23.484375 1.453125 19.265625 0.363281 15.671875 -1.8125 C 12.078125 -3.988281 9.3125 -7.117188 7.375 -11.203125 C 5.4375 -15.285156 4.46875 -20.128906 4.46875 -25.734375 C 4.46875 -31.890625 5.46875 -37.144531 7.46875 -41.5 C 9.476562 -45.863281 12.296875 -49.203125 15.921875 -51.515625 C 19.554688 -53.835938 23.765625 -55 28.546875 -55 Z M 28.546875 -55 "/></g></g><g style="fill:#c8d0e0;fill-opacity:1;"><g transform="translate(564.912403, 447.323539)"><path style="stroke:none" d="M 38.921875 -55 C 41.679688 -55 43.941406 -54.632812 45.703125 -53.90625 C 47.472656 -53.1875 48.945312 -52.203125 50.125 -50.953125 C 51.375 -49.640625 52.253906 -47.945312 52.765625 -45.875 C 53.285156 -43.800781 53.546875 -41 53.546875 -37.46875 L 53.546875 -9.65625 C 53.546875 -6.75 54.113281 -4.773438 55.25 -3.734375 C 56.394531 -2.691406 58.316406 -2.171875 61.015625 -2.171875 L 61.015625 0 C 59.847656 -0.0703125 58.015625 -0.160156 55.515625 -0.265625 C 53.023438 -0.367188 50.570312 -0.421875 48.15625 -0.421875 C 45.800781 -0.421875 43.460938 -0.367188 41.140625 -0.265625 C 38.828125 -0.160156 37.082031 -0.0703125 35.90625 0 L 35.90625 -2.171875 C 38.257812 -2.171875 39.921875 -2.691406 40.890625 -3.734375 C 41.859375 -4.773438 42.34375 -6.75 42.34375 -9.65625 L 42.34375 -40.375 C 42.34375 -42.375 42.171875 -44.1875 41.828125 -45.8125 C 41.484375 -47.445312 40.753906 -48.765625 39.640625 -49.765625 C 38.535156 -50.765625 36.875 -51.265625 34.65625 -51.265625 C 32.101562 -51.265625 29.835938 -50.535156 27.859375 -49.078125 C 25.890625 -47.628906 24.332031 -45.640625 23.1875 -43.109375 C 22.050781 -40.585938 21.484375 -37.769531 21.484375 -34.65625 L 21.484375 -9.65625 C 21.484375 -6.75 21.984375 -4.773438 22.984375 -3.734375 C 23.992188 -2.691406 25.640625 -2.171875 27.921875 -2.171875 L 27.921875 0 C 26.804688 -0.0703125 25.125 -0.160156 22.875 -0.265625 C 20.632812 -0.367188 18.300781 -0.421875 15.875 -0.421875 C 13.519531 -0.421875 11.0625 -0.367188 8.5 -0.265625 C 5.945312 -0.160156 4.046875 -0.0703125 2.796875 0 L 2.796875 -2.171875 C 5.492188 -2.171875 7.414062 -2.691406 8.5625 -3.734375 C 9.707031 -4.773438 10.28125 -6.75 10.28125 -9.65625 L 10.28125 -42.234375 C 10.28125 -45.347656 9.757812 -47.648438 8.71875 -49.140625 C 7.675781 -50.628906 5.703125 -51.375 2.796875 -51.375 L 2.796875 -53.546875 C 5.015625 -53.335938 7.160156 -53.234375 9.234375 -53.234375 C 11.585938 -53.234375 13.785156 -53.351562 15.828125 -53.59375 C 17.867188 -53.84375 19.753906 -54.207031 21.484375 -54.6875 L 21.484375 -43.375 C 23.285156 -47.664062 25.757812 -50.675781 28.90625 -52.40625 C 32.050781 -54.132812 35.390625 -55 38.921875 -55 Z M 38.921875 -55 "/></g></g><g style="fill:#c8d0e0;fill-opacity:1;"><g transform="translate(637.865007, 447.323539)"><path style="stroke:none" d="M 38.921875 -55 C 41.679688 -55 43.941406 -54.632812 45.703125 -53.90625 C 47.472656 -53.1875 48.945312 -52.203125 50.125 -50.953125 C 51.375 -49.640625 52.253906 -47.945312 52.765625 -45.875 C 53.285156 -43.800781 53.546875 -41 53.546875 -37.46875 L 53.546875 -9.65625 C 53.546875 -6.75 54.113281 -4.773438 55.25 -3.734375 C 56.394531 -2.691406 58.316406 -2.171875 61.015625 -2.171875 L 61.015625 0 C 59.847656 -0.0703125 58.015625 -0.160156 55.515625 -0.265625 C 53.023438 -0.367188 50.570312 -0.421875 48.15625 -0.421875 C 45.800781 -0.421875 43.460938 -0.367188 41.140625 -0.265625 C 38.828125 -0.160156 37.082031 -0.0703125 35.90625 0 L 35.90625 -2.171875 C 38.257812 -2.171875 39.921875 -2.691406 40.890625 -3.734375 C 41.859375 -4.773438 42.34375 -6.75 42.34375 -9.65625 L 42.34375 -40.375 C 42.34375 -42.375 42.171875 -44.1875 41.828125 -45.8125 C 41.484375 -47.445312 40.753906 -48.765625 39.640625 -49.765625 C 38.535156 -50.765625 36.875 -51.265625 34.65625 -51.265625 C 32.101562 -51.265625 29.835938 -50.535156 27.859375 -49.078125 C 25.890625 -47.628906 24.332031 -45.640625 23.1875 -43.109375 C 22.050781 -40.585938 21.484375 -37.769531 21.484375 -34.65625 L 21.484375 -9.65625 C 21.484375 -6.75 21.984375 -4.773438 22.984375 -3.734375 C 23.992188 -2.691406 25.640625 -2.171875 27.921875 -2.171875 L 27.921875 0 C 26.804688 -0.0703125 25.125 -0.160156 22.875 -0.265625 C 20.632812 -0.367188 18.300781 -0.421875 15.875 -0.421875 C 13.519531 -0.421875 11.0625 -0.367188 8.5 -0.265625 C 5.945312 -0.160156 4.046875 -0.0703125 2.796875 0 L 2.796875 -2.171875 C 5.492188 -2.171875 7.414062 -2.691406 8.5625 -3.734375 C 9.707031 -4.773438 10.28125 -6.75 10.28125 -9.65625 L 10.28125 -42.234375 C 10.28125 -45.347656 9.757812 -47.648438 8.71875 -49.140625 C 7.675781 -50.628906 5.703125 -51.375 2.796875 -51.375 L 2.796875 -53.546875 C 5.015625 -53.335938 7.160156 -53.234375 9.234375 -53.234375 C 11.585938 -53.234375 13.785156 -53.351562 15.828125 -53.59375 C 17.867188 -53.84375 19.753906 -54.207031 21.484375 -54.6875 L 21.484375 -43.375 C 23.285156 -47.664062 25.757812 -50.675781 28.90625 -52.40625 C 32.050781 -54.132812 35.390625 -55 38.921875 -55 Z M 38.921875 -55 "/></g></g><g style="fill:#c8d0e0;fill-opacity:1;"><g transform="translate(710.817553, 447.323539)"><path style="stroke:none" d="M 17.4375 0.71875 C 14.53125 0.71875 12.035156 0.164062 9.953125 -0.9375 C 7.878906 -2.039062 6.320312 -3.5625 5.28125 -5.5 C 4.25 -7.4375 3.734375 -9.648438 3.734375 -12.140625 C 3.734375 -15.179688 4.425781 -17.65625 5.8125 -19.5625 C 7.195312 -21.46875 8.976562 -23.003906 11.15625 -24.171875 C 13.332031 -25.347656 15.648438 -26.332031 18.109375 -27.125 C 20.566406 -27.925781 22.882812 -28.691406 25.0625 -29.421875 C 27.238281 -30.148438 29.035156 -31 30.453125 -31.96875 C 31.878906 -32.9375 32.59375 -34.210938 32.59375 -35.796875 L 32.59375 -42.859375 C 32.59375 -45.347656 32.191406 -47.335938 31.390625 -48.828125 C 30.597656 -50.316406 29.523438 -51.367188 28.171875 -51.984375 C 26.828125 -52.609375 25.21875 -52.921875 23.34375 -52.921875 C 21.757812 -52.921875 20.066406 -52.695312 18.265625 -52.25 C 16.460938 -51.800781 15.046875 -50.921875 14.015625 -49.609375 C 15.535156 -49.191406 16.796875 -48.378906 17.796875 -47.171875 C 18.796875 -45.960938 19.296875 -44.457031 19.296875 -42.65625 C 19.296875 -40.71875 18.65625 -39.191406 17.375 -38.078125 C 16.101562 -36.972656 14.5 -36.421875 12.5625 -36.421875 C 10.414062 -36.421875 8.820312 -37.09375 7.78125 -38.4375 C 6.75 -39.789062 6.234375 -41.367188 6.234375 -43.171875 C 6.234375 -45.035156 6.695312 -46.554688 7.625 -47.734375 C 8.5625 -48.910156 9.789062 -50.019531 11.3125 -51.0625 C 12.96875 -52.164062 15.09375 -53.097656 17.6875 -53.859375 C 20.289062 -54.617188 23.179688 -55 26.359375 -55 C 29.335938 -55 31.914062 -54.671875 34.09375 -54.015625 C 36.269531 -53.359375 38.085938 -52.304688 39.546875 -50.859375 C 41.273438 -49.265625 42.414062 -47.273438 42.96875 -44.890625 C 43.519531 -42.503906 43.796875 -39.613281 43.796875 -36.21875 L 43.796875 -7.578125 C 43.796875 -5.847656 44.019531 -4.617188 44.46875 -3.890625 C 44.914062 -3.160156 45.660156 -2.796875 46.703125 -2.796875 C 47.390625 -2.796875 48.0625 -2.96875 48.71875 -3.3125 C 49.382812 -3.664062 50.164062 -4.1875 51.0625 -4.875 L 52.09375 -3.109375 C 50.644531 -1.929688 49.175781 -1 47.6875 -0.3125 C 46.195312 0.375 44.3125 0.71875 42.03125 0.71875 C 39.8125 0.71875 38.007812 0.375 36.625 -0.3125 C 35.25 -1 34.234375 -2 33.578125 -3.3125 C 32.921875 -4.632812 32.59375 -6.265625 32.59375 -8.203125 C 30.789062 -5.296875 28.644531 -3.082031 26.15625 -1.5625 C 23.664062 -0.0390625 20.757812 0.71875 17.4375 0.71875 Z M 22.421875 -4.25 C 24.359375 -4.25 26.171875 -4.800781 27.859375 -5.90625 C 29.554688 -7.019531 31.132812 -8.679688 32.59375 -10.890625 L 32.59375 -31.546875 C 31.832031 -30.441406 30.722656 -29.488281 29.265625 -28.6875 C 27.816406 -27.894531 26.257812 -27.082031 24.59375 -26.25 C 22.9375 -25.425781 21.363281 -24.476562 19.875 -23.40625 C 18.382812 -22.332031 17.15625 -20.960938 16.1875 -19.296875 C 15.21875 -17.640625 14.734375 -15.53125 14.734375 -12.96875 C 14.734375 -10.269531 15.425781 -8.140625 16.8125 -6.578125 C 18.195312 -5.023438 20.066406 -4.25 22.421875 -4.25 Z M 22.421875 -4.25 "/></g></g></g></svg>