<svg xmlns="http://www.w3.org/2000/svg" xmlns:xlink="http://www.w3.org/1999/xlink" width="1080" zoomAndPan="magnify" viewBox="0 0 810 809.999993" height="1080" preserveAspectRatio="xMidYMid meet" version="1.2"><defs><clipPath id="6431b85025"><path d="M 327 277 L 492 277 L 492 637.445312 L 327 637.445312 Z M 327 277 "/></clipPath><clipPath id="118a3b55c8"><path d="M 388 83.945312 L 420 83.945312 L 420 177 L 388 177 Z M 388 83.945312 "/></clipPath><clipPath id="950cb12fb0"><path d="M 190.261719 322 L 268 322 L 268 352 L 190.261719 352 Z M 190.261719 322 "/></clipPath></defs><g id="700752cd1e"><path style=" stroke:none;fill-rule:nonzero;fill:#f5b11b;fill-opacity:1;" d="M 492.539062 408.394531 C 495.269531 399.609375 497.398438 390.53125 498.707031 381.398438 C 506.226562 329.09375 478.308594 224.214844 419.492188 210.292969 C 341.425781 191.816406 325.0625 308.539062 284.558594 350.503906 C 283.464844 351.636719 282.707031 352.960938 280.863281 352.585938 C 280.351562 346.710938 278.351562 341.0625 277.714844 335.199219 C 265.449219 222.019531 385.351562 145.996094 479.183594 212.730469 C 539.820312 255.855469 550.042969 349.816406 498.347656 404.203125 C 497.488281 405.109375 493.65625 409.511719 492.539062 408.390625 Z M 492.539062 408.394531 "/><g clip-rule="nonzero" clip-path="url(#6431b85025)"><path style=" stroke:none;fill-rule:nonzero;fill:#552d8b;fill-opacity:1;" d="M 459.304688 277.292969 C 496.195312 314.859375 499.539062 371.535156 477.253906 417.867188 C 456.921875 460.148438 427.164062 475.503906 397.210938 507.371094 C 360.992188 545.914062 353.53125 601.066406 396.695312 637.4375 C 392.390625 637.175781 385.5 634.117188 381.234375 631.839844 C 338.753906 609.125 318.839844 555.3125 331.109375 509.722656 C 349.667969 440.742188 425.742188 432.679688 448.8125 374.691406 C 455.058594 358.996094 457.8125 339.824219 455.6875 323.113281 C 457.582031 323.4375 457.488281 325.246094 457.9375 326.644531 C 465.320312 349.65625 462.105469 380.125 451.660156 401.761719 C 433.078125 440.265625 392.074219 459.761719 369.285156 495.253906 C 357.242188 514.007812 350.183594 536.613281 350.371094 558.988281 L 353.222656 545.535156 C 381.539062 461.945312 491.003906 441.664062 478.714844 339.570312 C 476.445312 320.738281 468.765625 298.015625 460.871094 280.761719 C 460.425781 279.792969 458.433594 279.472656 458.199219 277.972656 L 459.304688 277.300781 Z M 459.304688 277.292969 "/></g><path style=" stroke:none;fill-rule:nonzero;fill:#552d8b;fill-opacity:1;" d="M 345.097656 376.289062 C 339.886719 422.621094 283.269531 437.4375 272.957031 481.066406 C 266.382812 508.875 273.753906 545.566406 293.976562 566.429688 L 299.816406 570.558594 C 276.96875 538.964844 291.605469 500.792969 314.015625 473.675781 C 315.980469 471.296875 319.320312 467.445312 321.558594 465.441406 C 322.625 464.488281 322.835938 462.589844 325.089844 463.171875 C 300.277344 493.882812 294.21875 538.828125 312.273438 574.4375 L 320.875 587.417969 C 295.9375 581.5625 270.992188 563.445312 257.898438 541.410156 C 240.847656 512.714844 240.351562 476.726562 262.421875 450.515625 C 277.691406 432.382812 300.628906 422.859375 316.699219 405.804688 C 331.535156 390.0625 341.828125 369.160156 343.011719 347.335938 C 343.6875 347.257812 345.105469 348.738281 345.105469 348.914062 C 345.105469 357.320312 346.007812 368.292969 345.105469 376.296875 Z M 345.097656 376.289062 "/><path style=" stroke:none;fill-rule:nonzero;fill:#c9d0e0;fill-opacity:1;" d="M 430.402344 271.5 C 423.898438 271.324219 419.15625 270.964844 413.179688 273.816406 C 412.089844 274.335938 409.574219 274.433594 410.402344 276.230469 C 411.960938 279.597656 419.191406 275.957031 422.457031 275.675781 C 432.269531 274.84375 437.507812 276.460938 443.578125 284.128906 C 449.84375 292.050781 447.808594 299.988281 445.890625 309.628906 C 438.351562 347.449219 401.894531 372.316406 372.976562 335.765625 C 366.902344 328.085938 356.699219 300.15625 360.394531 291.527344 C 360.832031 290.503906 375.308594 276.25 376.382812 275.933594 C 383.34375 273.882812 389.902344 278.300781 396.707031 277.816406 L 395.988281 274.652344 C 392.214844 273.609375 388.296875 272.671875 384.554688 271.527344 C 383.394531 271.171875 382.671875 272.257812 383.023438 269.941406 C 390.300781 263.027344 396.816406 253.550781 400.371094 244.109375 C 402.132812 239.441406 402.535156 234.746094 404.605469 230.445312 C 407.320312 247.023438 418.140625 260.707031 430.402344 271.496094 Z M 393.332031 290.078125 C 383.339844 292.652344 380.101562 292.121094 370.378906 288.367188 C 373.796875 301.097656 388.996094 300.300781 395.628906 289.945312 C 392.816406 286.476562 393.746094 289.976562 393.332031 290.085938 Z M 412.507812 289.417969 C 413.292969 294.027344 420.523438 297.644531 424.652344 297.882812 C 430.105469 298.191406 438.503906 294.761719 435.664062 288.355469 C 427.570312 293.328125 421.039062 291.152344 412.507812 289.417969 Z M 411.445312 317.835938 C 409.398438 313.171875 400.628906 313.339844 397.757812 317.324219 C 402.910156 321.222656 406.023438 319.71875 411.445312 317.835938 Z M 419.871094 329.445312 C 415.183594 329.707031 411.046875 323.292969 407 324.363281 C 400.574219 326.070312 404.113281 324.410156 400.398438 324.1875 C 399.265625 324.121094 388.96875 329.546875 389.335938 331 C 389.476562 331.546875 397.074219 337.246094 398.257812 337.886719 C 407.6875 342.96875 413.382812 335.472656 419.878906 329.449219 Z M 419.871094 329.445312 "/><path style=" stroke:none;fill-rule:nonzero;fill:#c9d0e0;fill-opacity:1;" d="M 430.390625 351.542969 C 430.019531 355.933594 428.535156 360.257812 428.257812 364.667969 C 427.921875 369.984375 429.9375 379.074219 429.375 382.550781 C 428.65625 386.988281 415.375 398.417969 411.359375 401.46875 C 393.113281 415.355469 370.929688 423.132812 351.941406 435.765625 C 350.695312 435.832031 350.515625 434.527344 351.410156 433.152344 C 352.941406 430.816406 356.738281 428.210938 358.761719 425.75 C 377.496094 402.933594 384.457031 381.324219 377.753906 351.539062 C 389.652344 367.457031 406.726562 374.226562 423.054688 359.460938 C 425.773438 357 427.054688 353.339844 430.390625 351.539062 Z M 430.390625 351.542969 "/><path style=" stroke:none;fill-rule:nonzero;fill:#552d8b;fill-opacity:1;" d="M 338.777344 310.476562 C 332.53125 331.136719 328.136719 353.148438 315.851562 371.261719 C 299.726562 395.042969 264.792969 413.917969 240.351562 429.503906 C 239.058594 430.328125 238.269531 430.835938 236.628906 430.511719 C 243.761719 389.53125 289.859375 377.800781 313.53125 349.988281 C 323.15625 338.679688 328.105469 324.824219 336.171875 312.566406 C 336.976562 311.339844 335.914062 309.847656 338.777344 310.476562 Z M 338.777344 310.476562 "/><g clip-rule="nonzero" clip-path="url(#118a3b55c8)"><path style=" stroke:none;fill-rule:nonzero;fill:#f3b01c;fill-opacity:1;" d="M 405.117188 84.074219 C 407.933594 98.453125 414.476562 111.753906 417.277344 126.160156 C 419.882812 139.582031 421.605469 154.746094 415.179688 167.308594 C 408.804688 179.761719 398.285156 179.472656 392.296875 166.941406 C 384.484375 150.59375 389.472656 129.21875 394.082031 112.515625 C 396.085938 105.246094 399.871094 91.925781 402.78125 85.414062 C 403.425781 83.976562 402.90625 83.765625 405.128906 84.082031 Z M 405.117188 84.074219 "/></g><path style=" stroke:none;fill-rule:nonzero;fill:#f4b01c;fill-opacity:1;" d="M 603.121094 222.03125 C 588.675781 236.210938 562.214844 265.347656 540.496094 264.15625 C 521.246094 263.101562 526.53125 246.078125 537.914062 237.378906 C 555.425781 223.992188 582.210938 224.746094 603.121094 222.03125 Z M 603.121094 222.03125 "/><path style=" stroke:none;fill-rule:nonzero;fill:#f4b11c;fill-opacity:1;" d="M 206.089844 222.023438 C 227.640625 225.15625 260.199219 224.273438 275.433594 242.710938 C 289.207031 259.386719 272.320312 267.324219 256.050781 262.089844 C 244.503906 258.371094 215.082031 234.875 207.65625 225.183594 C 206.847656 224.128906 205.609375 223.855469 206.089844 222.023438 Z M 206.089844 222.023438 "/><path style=" stroke:none;fill-rule:nonzero;fill:#f4b11c;fill-opacity:1;" d="M 524.132812 127.253906 C 519.363281 147.570312 511.285156 188.949219 488.617188 196.503906 C 476.214844 200.640625 472.070312 193.167969 473.679688 181.566406 C 475.863281 165.8125 508.25 138.714844 520.964844 128.816406 C 522.023438 127.992188 522.316406 126.785156 524.132812 127.253906 Z M 524.132812 127.253906 "/><path style=" stroke:none;fill-rule:nonzero;fill:#f4b11c;fill-opacity:1;" d="M 286.132812 127.25 C 301.035156 139.808594 335.15625 164.863281 335.511719 185.804688 C 335.707031 197.429688 326.894531 200.21875 317.386719 195.503906 C 297.421875 185.613281 288.851562 147.382812 286.132812 127.25 Z M 286.132812 127.25 "/><path style=" stroke:none;fill-rule:nonzero;fill:#f3b01c;fill-opacity:1;" d="M 619.96875 342.078125 C 620.21875 343.589844 618.140625 343.503906 617.039062 343.855469 C 599.230469 349.574219 571.933594 354.683594 554.117188 348.417969 C 535.167969 341.757812 536.820312 325.179688 557.324219 323.117188 C 581.066406 320.734375 599.191406 334.222656 619.972656 342.070312 Z M 619.96875 342.078125 "/><path style=" stroke:none;fill-rule:nonzero;fill:#f4b01c;fill-opacity:1;" d="M 573.632812 455.78125 C 554.441406 449.933594 526.414062 441.015625 515.273438 423.058594 C 510.558594 415.464844 508.074219 403.878906 519.65625 402.335938 C 543.683594 399.136719 562.835938 439.003906 573.632812 455.78125 Z M 573.632812 455.78125 "/><g clip-rule="nonzero" clip-path="url(#950cb12fb0)"><path style=" stroke:none;fill-rule:nonzero;fill:#f2b01c;fill-opacity:1;" d="M 190.289062 342.078125 C 209.367188 333.964844 227.976562 321.234375 249.769531 323.128906 C 272.230469 325.078125 273.316406 342.859375 252.652344 349.140625 C 237.589844 353.71875 207.832031 349.605469 192.964844 344.125 C 191.84375 343.710938 190.4375 343.648438 190.289062 342.078125 Z M 190.289062 342.078125 "/></g><path style=" stroke:none;fill-rule:nonzero;fill:#522d87;fill-opacity:1;" d="M 375.632812 258.882812 L 319.835938 310.472656 L 330.386719 295.230469 C 341.164062 283.835938 352.949219 273.332031 365.832031 264.328125 C 368.714844 262.3125 372.183594 259 375.640625 258.878906 Z M 375.632812 258.882812 "/><path style=" stroke:none;fill-rule:nonzero;fill:#512c85;fill-opacity:1;" d="M 232.410156 458.421875 C 233.492188 451.890625 244.53125 442.167969 251.347656 441.566406 L 238.542969 456.128906 L 232.417969 473.695312 C 232.957031 468.992188 231.671875 462.910156 232.417969 458.425781 Z M 232.410156 458.421875 "/><path style=" stroke:none;fill-rule:nonzero;fill:#512c85;fill-opacity:1;" d="M 252.945312 440 C 253.632812 440.347656 253.632812 440.699219 252.945312 441.050781 Z M 252.945312 440 "/><g style="fill:#c8d0e0;fill-opacity:1;"><g transform="translate(185.62246, 707.581088)"><path style="stroke:none" d="M 33.328125 -70.21875 L 57.40625 -8.28125 C 58.320312 -5.851562 59.382812 -4.210938 60.59375 -3.359375 C 61.8125 -2.503906 62.945312 -2.039062 64 -1.96875 L 64 0 C 62.425781 -0.132812 60.570312 -0.21875 58.4375 -0.25 C 56.300781 -0.28125 54.144531 -0.296875 51.96875 -0.296875 C 49.207031 -0.296875 46.644531 -0.28125 44.28125 -0.25 C 41.914062 -0.21875 40.007812 -0.132812 38.5625 0 L 38.5625 -1.96875 C 41.914062 -2.101562 44.035156 -2.679688 44.921875 -3.703125 C 45.804688 -4.722656 45.59375 -6.90625 44.28125 -10.25 L 26.53125 -58.1875 L 28.109375 -59.96875 L 11.734375 -17.15625 C 10.554688 -14.195312 9.847656 -11.734375 9.609375 -9.765625 C 9.378906 -7.796875 9.546875 -6.25 10.109375 -5.125 C 10.671875 -4.007812 11.640625 -3.222656 13.015625 -2.765625 C 14.398438 -2.304688 16.109375 -2.039062 18.140625 -1.96875 L 18.140625 0 C 16.171875 -0.132812 14.179688 -0.21875 12.171875 -0.25 C 10.171875 -0.28125 8.285156 -0.296875 6.515625 -0.296875 C 4.929688 -0.296875 3.53125 -0.28125 2.3125 -0.25 C 1.101562 -0.21875 0.00390625 -0.132812 -0.984375 0 L -0.984375 -1.96875 C 0.390625 -2.300781 1.769531 -3.125 3.15625 -4.4375 C 4.539062 -5.75 5.851562 -7.984375 7.09375 -11.140625 L 29.984375 -70.21875 C 30.503906 -70.21875 31.0625 -70.21875 31.65625 -70.21875 C 32.25 -70.21875 32.804688 -70.21875 33.328125 -70.21875 Z M 43.6875 -28.40625 L 43.6875 -26.4375 L 14.296875 -26.4375 L 15.28125 -28.40625 Z M 43.6875 -28.40625 "/></g></g><g style="fill:#c8d0e0;fill-opacity:1;"><g transform="translate(255.835724, 707.581088)"><path style="stroke:none" d="M 48.921875 -51.96875 L 48.921875 -10.65625 C 48.921875 -7.695312 49.425781 -5.507812 50.4375 -4.09375 C 51.457031 -2.675781 53.316406 -1.96875 56.015625 -1.96875 L 56.015625 0.09375 C 53.984375 -0.101562 51.945312 -0.203125 49.90625 -0.203125 C 47.738281 -0.203125 45.664062 -0.101562 43.6875 0.09375 C 41.71875 0.289062 39.910156 0.65625 38.265625 1.1875 L 38.265625 -9.5625 C 36.617188 -5.625 34.332031 -2.816406 31.40625 -1.140625 C 28.476562 0.535156 25.40625 1.375 22.1875 1.375 C 19.757812 1.375 17.6875 1.03125 15.96875 0.34375 C 14.257812 -0.34375 12.847656 -1.242188 11.734375 -2.359375 C 10.554688 -3.679688 9.734375 -5.375 9.265625 -7.4375 C 8.804688 -9.507812 8.578125 -12.125 8.578125 -15.28125 L 8.578125 -40.140625 C 8.578125 -43.097656 8.082031 -45.28125 7.09375 -46.6875 C 6.113281 -48.101562 4.242188 -48.8125 1.484375 -48.8125 L 1.484375 -50.890625 C 3.585938 -50.691406 5.625 -50.59375 7.59375 -50.59375 C 9.757812 -50.59375 11.828125 -50.707031 13.796875 -50.9375 C 15.773438 -51.164062 17.585938 -51.507812 19.234375 -51.96875 L 19.234375 -12.53125 C 19.234375 -10.625 19.363281 -8.878906 19.625 -7.296875 C 19.882812 -5.722656 20.507812 -4.472656 21.5 -3.546875 C 22.488281 -2.628906 24.066406 -2.171875 26.234375 -2.171875 C 28.535156 -2.171875 30.585938 -2.859375 32.390625 -4.234375 C 34.203125 -5.617188 35.632812 -7.492188 36.6875 -9.859375 C 37.738281 -12.222656 38.265625 -14.882812 38.265625 -17.84375 L 38.265625 -40.140625 C 38.265625 -43.097656 37.769531 -45.28125 36.78125 -46.6875 C 35.800781 -48.101562 33.929688 -48.8125 31.171875 -48.8125 L 31.171875 -50.890625 C 33.273438 -50.691406 35.3125 -50.59375 37.28125 -50.59375 C 39.445312 -50.59375 41.515625 -50.707031 43.484375 -50.9375 C 45.460938 -51.164062 47.273438 -51.507812 48.921875 -51.96875 Z M 48.921875 -51.96875 "/></g></g><g style="fill:#c8d0e0;fill-opacity:1;"><g transform="translate(323.78101, 707.581088)"><path style="stroke:none" d="M 34.421875 -52.265625 C 36.328125 -52.265625 37.953125 -51.867188 39.296875 -51.078125 C 40.648438 -50.296875 41.671875 -49.296875 42.359375 -48.078125 C 43.046875 -46.859375 43.390625 -45.492188 43.390625 -43.984375 C 43.390625 -42.078125 42.8125 -40.445312 41.65625 -39.09375 C 40.507812 -37.75 38.984375 -37.078125 37.078125 -37.078125 C 35.441406 -37.078125 34.046875 -37.570312 32.890625 -38.5625 C 31.742188 -39.550781 31.171875 -40.898438 31.171875 -42.609375 C 31.171875 -44.054688 31.546875 -45.285156 32.296875 -46.296875 C 33.054688 -47.316406 33.925781 -48.125 34.90625 -48.71875 C 34.25 -49.25 33.460938 -49.476562 32.546875 -49.40625 C 30.773438 -49.34375 29.128906 -48.769531 27.609375 -47.6875 C 26.097656 -46.601562 24.816406 -45.222656 23.765625 -43.546875 C 22.710938 -41.867188 21.890625 -40.078125 21.296875 -38.171875 C 20.710938 -36.265625 20.421875 -34.488281 20.421875 -32.84375 L 20.421875 -10.15625 C 20.421875 -6.9375 21.304688 -4.785156 23.078125 -3.703125 C 24.847656 -2.617188 27.3125 -2.078125 30.46875 -2.078125 L 30.46875 0 C 28.957031 -0.0625 26.804688 -0.140625 24.015625 -0.234375 C 21.222656 -0.335938 18.28125 -0.390625 15.1875 -0.390625 C 12.820312 -0.390625 10.453125 -0.335938 8.078125 -0.234375 C 5.710938 -0.140625 3.90625 -0.0625 2.65625 0 L 2.65625 -2.078125 C 5.226562 -2.078125 7.054688 -2.566406 8.140625 -3.546875 C 9.222656 -4.535156 9.765625 -6.410156 9.765625 -9.171875 L 9.765625 -40.140625 C 9.765625 -43.097656 9.269531 -45.28125 8.28125 -46.6875 C 7.300781 -48.101562 5.425781 -48.8125 2.65625 -48.8125 L 2.65625 -50.890625 C 4.757812 -50.691406 6.800781 -50.59375 8.78125 -50.59375 C 11.007812 -50.59375 13.09375 -50.707031 15.03125 -50.9375 C 16.976562 -51.164062 18.773438 -51.507812 20.421875 -51.96875 L 20.421875 -40.640625 C 21.203125 -42.546875 22.25 -44.382812 23.5625 -46.15625 C 24.882812 -47.925781 26.460938 -49.382812 28.296875 -50.53125 C 30.140625 -51.6875 32.179688 -52.265625 34.421875 -52.265625 Z M 34.421875 -52.265625 "/></g></g><g style="fill:#c8d0e0;fill-opacity:1;"><g transform="translate(376.441179, 707.581088)"><path style="stroke:none" d="M 27.125 -52.265625 C 32.90625 -52.265625 37.4375 -50.519531 40.71875 -47.03125 C 44.007812 -43.550781 45.65625 -38.03125 45.65625 -30.46875 L 11.640625 -30.46875 L 11.4375 -32.34375 L 35.203125 -32.34375 C 35.273438 -35.570312 35.015625 -38.550781 34.421875 -41.28125 C 33.828125 -44.007812 32.90625 -46.191406 31.65625 -47.828125 C 30.40625 -49.472656 28.765625 -50.296875 26.734375 -50.296875 C 23.898438 -50.296875 21.445312 -48.800781 19.375 -45.8125 C 17.300781 -42.820312 16.035156 -38.039062 15.578125 -31.46875 L 15.875 -30.96875 C 15.8125 -30.050781 15.742188 -29.046875 15.671875 -27.953125 C 15.609375 -26.867188 15.578125 -25.800781 15.578125 -24.75 C 15.578125 -20.21875 16.265625 -16.40625 17.640625 -13.3125 C 19.023438 -10.21875 20.835938 -7.898438 23.078125 -6.359375 C 25.316406 -4.816406 27.585938 -4.046875 29.890625 -4.046875 C 31.660156 -4.046875 33.382812 -4.320312 35.0625 -4.875 C 36.738281 -5.4375 38.332031 -6.390625 39.84375 -7.734375 C 41.351562 -9.085938 42.703125 -10.945312 43.890625 -13.3125 L 45.859375 -12.53125 C 45.066406 -10.289062 43.847656 -8.082031 42.203125 -5.90625 C 40.566406 -3.738281 38.460938 -1.984375 35.890625 -0.640625 C 33.328125 0.703125 30.335938 1.375 26.921875 1.375 C 22.316406 1.375 18.304688 0.34375 14.890625 -1.71875 C 11.472656 -3.789062 8.84375 -6.765625 7 -10.640625 C 5.15625 -14.523438 4.234375 -19.128906 4.234375 -24.453125 C 4.234375 -30.304688 5.1875 -35.300781 7.09375 -39.4375 C 9.007812 -43.582031 11.691406 -46.753906 15.140625 -48.953125 C 18.585938 -51.160156 22.582031 -52.265625 27.125 -52.265625 Z M 27.125 -52.265625 "/></g></g><g style="fill:#c8d0e0;fill-opacity:1;"><g transform="translate(435.905719, 707.581088)"><path style="stroke:none" d="M 36.984375 -52.265625 C 39.609375 -52.265625 41.757812 -51.921875 43.4375 -51.234375 C 45.113281 -50.546875 46.515625 -49.609375 47.640625 -48.421875 C 48.816406 -47.171875 49.648438 -45.5625 50.140625 -43.59375 C 50.640625 -41.625 50.890625 -38.960938 50.890625 -35.609375 L 50.890625 -9.171875 C 50.890625 -6.410156 51.429688 -4.535156 52.515625 -3.546875 C 53.597656 -2.566406 55.421875 -2.078125 57.984375 -2.078125 L 57.984375 0 C 56.867188 -0.0625 55.128906 -0.140625 52.765625 -0.234375 C 50.398438 -0.335938 48.066406 -0.390625 45.765625 -0.390625 C 43.523438 -0.390625 41.300781 -0.335938 39.09375 -0.234375 C 36.894531 -0.140625 35.238281 -0.0625 34.125 0 L 34.125 -2.078125 C 36.363281 -2.078125 37.941406 -2.566406 38.859375 -3.546875 C 39.773438 -4.535156 40.234375 -6.410156 40.234375 -9.171875 L 40.234375 -38.359375 C 40.234375 -40.265625 40.066406 -41.988281 39.734375 -43.53125 C 39.410156 -45.082031 38.722656 -46.332031 37.671875 -47.28125 C 36.617188 -48.238281 35.039062 -48.71875 32.9375 -48.71875 C 30.507812 -48.71875 28.359375 -48.023438 26.484375 -46.640625 C 24.609375 -45.265625 23.128906 -43.375 22.046875 -40.96875 C 20.960938 -38.570312 20.421875 -35.894531 20.421875 -32.9375 L 20.421875 -9.171875 C 20.421875 -6.410156 20.894531 -4.535156 21.84375 -3.546875 C 22.800781 -2.566406 24.363281 -2.078125 26.53125 -2.078125 L 26.53125 0 C 25.476562 -0.0625 23.882812 -0.140625 21.75 -0.234375 C 19.613281 -0.335938 17.394531 -0.390625 15.09375 -0.390625 C 12.851562 -0.390625 10.515625 -0.335938 8.078125 -0.234375 C 5.648438 -0.140625 3.84375 -0.0625 2.65625 0 L 2.65625 -2.078125 C 5.226562 -2.078125 7.054688 -2.566406 8.140625 -3.546875 C 9.222656 -4.535156 9.765625 -6.410156 9.765625 -9.171875 L 9.765625 -40.140625 C 9.765625 -43.097656 9.269531 -45.28125 8.28125 -46.6875 C 7.300781 -48.101562 5.425781 -48.8125 2.65625 -48.8125 L 2.65625 -50.890625 C 4.757812 -50.691406 6.800781 -50.59375 8.78125 -50.59375 C 11.007812 -50.59375 13.09375 -50.707031 15.03125 -50.9375 C 16.976562 -51.164062 18.773438 -51.507812 20.421875 -51.96875 L 20.421875 -41.21875 C 22.128906 -45.300781 24.476562 -48.160156 27.46875 -49.796875 C 30.457031 -51.441406 33.628906 -52.265625 36.984375 -52.265625 Z M 36.984375 -52.265625 "/></g></g><g style="fill:#c8d0e0;fill-opacity:1;"><g transform="translate(505.231597, 707.581088)"><path style="stroke:none" d="M 36.984375 -52.265625 C 39.609375 -52.265625 41.757812 -51.921875 43.4375 -51.234375 C 45.113281 -50.546875 46.515625 -49.609375 47.640625 -48.421875 C 48.816406 -47.171875 49.648438 -45.5625 50.140625 -43.59375 C 50.640625 -41.625 50.890625 -38.960938 50.890625 -35.609375 L 50.890625 -9.171875 C 50.890625 -6.410156 51.429688 -4.535156 52.515625 -3.546875 C 53.597656 -2.566406 55.421875 -2.078125 57.984375 -2.078125 L 57.984375 0 C 56.867188 -0.0625 55.128906 -0.140625 52.765625 -0.234375 C 50.398438 -0.335938 48.066406 -0.390625 45.765625 -0.390625 C 43.523438 -0.390625 41.300781 -0.335938 39.09375 -0.234375 C 36.894531 -0.140625 35.238281 -0.0625 34.125 0 L 34.125 -2.078125 C 36.363281 -2.078125 37.941406 -2.566406 38.859375 -3.546875 C 39.773438 -4.535156 40.234375 -6.410156 40.234375 -9.171875 L 40.234375 -38.359375 C 40.234375 -40.265625 40.066406 -41.988281 39.734375 -43.53125 C 39.410156 -45.082031 38.722656 -46.332031 37.671875 -47.28125 C 36.617188 -48.238281 35.039062 -48.71875 32.9375 -48.71875 C 30.507812 -48.71875 28.359375 -48.023438 26.484375 -46.640625 C 24.609375 -45.265625 23.128906 -43.375 22.046875 -40.96875 C 20.960938 -38.570312 20.421875 -35.894531 20.421875 -32.9375 L 20.421875 -9.171875 C 20.421875 -6.410156 20.894531 -4.535156 21.84375 -3.546875 C 22.800781 -2.566406 24.363281 -2.078125 26.53125 -2.078125 L 26.53125 0 C 25.476562 -0.0625 23.882812 -0.140625 21.75 -0.234375 C 19.613281 -0.335938 17.394531 -0.390625 15.09375 -0.390625 C 12.851562 -0.390625 10.515625 -0.335938 8.078125 -0.234375 C 5.648438 -0.140625 3.84375 -0.0625 2.65625 0 L 2.65625 -2.078125 C 5.226562 -2.078125 7.054688 -2.566406 8.140625 -3.546875 C 9.222656 -4.535156 9.765625 -6.410156 9.765625 -9.171875 L 9.765625 -40.140625 C 9.765625 -43.097656 9.269531 -45.28125 8.28125 -46.6875 C 7.300781 -48.101562 5.425781 -48.8125 2.65625 -48.8125 L 2.65625 -50.890625 C 4.757812 -50.691406 6.800781 -50.59375 8.78125 -50.59375 C 11.007812 -50.59375 13.09375 -50.707031 15.03125 -50.9375 C 16.976562 -51.164062 18.773438 -51.507812 20.421875 -51.96875 L 20.421875 -41.21875 C 22.128906 -45.300781 24.476562 -48.160156 27.46875 -49.796875 C 30.457031 -51.441406 33.628906 -52.265625 36.984375 -52.265625 Z M 36.984375 -52.265625 "/></g></g><g style="fill:#c8d0e0;fill-opacity:1;"><g transform="translate(574.557499, 707.581088)"><path style="stroke:none" d="M 16.5625 0.6875 C 13.800781 0.6875 11.4375 0.160156 9.46875 -0.890625 C 7.5 -1.941406 6.019531 -3.382812 5.03125 -5.21875 C 4.039062 -7.0625 3.546875 -9.171875 3.546875 -11.546875 C 3.546875 -14.429688 4.203125 -16.773438 5.515625 -18.578125 C 6.835938 -20.390625 8.53125 -21.851562 10.59375 -22.96875 C 12.664062 -24.09375 14.867188 -25.03125 17.203125 -25.78125 C 19.546875 -26.539062 21.75 -27.265625 23.8125 -27.953125 C 25.882812 -28.648438 27.59375 -29.457031 28.9375 -30.375 C 30.289062 -31.289062 30.96875 -32.507812 30.96875 -34.03125 L 30.96875 -40.734375 C 30.96875 -43.097656 30.585938 -44.988281 29.828125 -46.40625 C 29.078125 -47.820312 28.0625 -48.820312 26.78125 -49.40625 C 25.5 -50 23.96875 -50.296875 22.1875 -50.296875 C 20.675781 -50.296875 19.066406 -50.082031 17.359375 -49.65625 C 15.648438 -49.226562 14.300781 -48.390625 13.3125 -47.140625 C 14.757812 -46.742188 15.957031 -45.96875 16.90625 -44.8125 C 17.863281 -43.664062 18.34375 -42.238281 18.34375 -40.53125 C 18.34375 -38.6875 17.734375 -37.238281 16.515625 -36.1875 C 15.296875 -35.144531 13.769531 -34.625 11.9375 -34.625 C 9.894531 -34.625 8.378906 -35.265625 7.390625 -36.546875 C 6.410156 -37.828125 5.921875 -39.320312 5.921875 -41.03125 C 5.921875 -42.800781 6.363281 -44.242188 7.25 -45.359375 C 8.132812 -46.484375 9.300781 -47.539062 10.75 -48.53125 C 12.320312 -49.570312 14.34375 -50.453125 16.8125 -51.171875 C 19.28125 -51.898438 22.023438 -52.265625 25.046875 -52.265625 C 27.878906 -52.265625 30.328125 -51.953125 32.390625 -51.328125 C 34.460938 -50.703125 36.191406 -49.703125 37.578125 -48.328125 C 39.222656 -46.816406 40.304688 -44.925781 40.828125 -42.65625 C 41.359375 -40.382812 41.625 -37.640625 41.625 -34.421875 L 41.625 -7.203125 C 41.625 -5.554688 41.835938 -4.382812 42.265625 -3.6875 C 42.691406 -3 43.394531 -2.65625 44.375 -2.65625 C 45.039062 -2.65625 45.679688 -2.820312 46.296875 -3.15625 C 46.921875 -3.488281 47.664062 -3.984375 48.53125 -4.640625 L 49.515625 -2.953125 C 48.128906 -1.835938 46.726562 -0.953125 45.3125 -0.296875 C 43.90625 0.359375 42.113281 0.6875 39.9375 0.6875 C 37.832031 0.6875 36.125 0.359375 34.8125 -0.296875 C 33.5 -0.953125 32.53125 -1.90625 31.90625 -3.15625 C 31.28125 -4.40625 30.96875 -5.953125 30.96875 -7.796875 C 29.257812 -5.035156 27.21875 -2.929688 24.84375 -1.484375 C 22.476562 -0.0351562 19.71875 0.6875 16.5625 0.6875 Z M 21.296875 -4.046875 C 23.140625 -4.046875 24.863281 -4.570312 26.46875 -5.625 C 28.082031 -6.675781 29.582031 -8.253906 30.96875 -10.359375 L 30.96875 -29.984375 C 30.25 -28.929688 29.195312 -28.023438 27.8125 -27.265625 C 26.425781 -26.515625 24.941406 -25.742188 23.359375 -24.953125 C 21.785156 -24.160156 20.289062 -23.253906 18.875 -22.234375 C 17.46875 -21.222656 16.300781 -19.925781 15.375 -18.34375 C 14.457031 -16.769531 14 -14.765625 14 -12.328125 C 14 -9.765625 14.65625 -7.742188 15.96875 -6.265625 C 17.289062 -4.785156 19.066406 -4.046875 21.296875 -4.046875 Z M 21.296875 -4.046875 "/></g></g></g></svg>